<svg width="32" height="32" viewBox="0 0 32 32" fill="none" xmlns="http://www.w3.org/2000/svg">
<path d="M6.6665 26.0003V8.26693C6.6665 6.77345 6.6665 6.02616 6.95715 5.45573C7.21282 4.95396 7.62047 4.54631 8.12223 4.29065C8.69266 4 9.43996 4 10.9334 4H23.2001C23.9468 4 24.3207 4 24.6059 4.14532C24.8568 4.27316 25.0595 4.47698 25.1873 4.72786C25.3327 5.01308 25.3332 5.38673 25.3332 6.13346V21.8668C25.3332 22.6135 25.3327 22.9864 25.1873 23.2716C25.0595 23.5225 24.8571 23.727 24.6062 23.8548C24.3213 24 23.9478 24 23.2025 24H9.6665C8.00965 24 6.6665 25.3431 6.6665 27C6.6665 27.5523 7.11422 28 7.6665 28H21.8692C22.6145 28 22.9879 28 23.2729 27.8548C23.5238 27.727 23.7262 27.5226 23.854 27.2717C23.9993 26.9865 23.9998 26.6134 23.9998 25.8667V24" stroke="#0D2060" stroke-width="2" stroke-linecap="round" stroke-linejoin="round"/>
</svg>
