<svg width="32" height="32" viewBox="0 0 32 32" fill="none" xmlns="http://www.w3.org/2000/svg">
<path d="M21.3333 10.6666H26.6667C27.403 10.6666 28 11.2635 28 11.9999V26.6666L23.556 22.9745C23.3166 22.7757 23.0143 22.6666 22.7031 22.6666H12C11.2636 22.6666 10.6667 22.0696 10.6667 21.3333V17.3333M21.3333 10.6666V6.66659C21.3333 5.93021 20.7364 5.33325 20 5.33325H5.33333C4.59695 5.33325 4 5.93021 4 6.66659V21.3336L8.44401 17.641C8.6834 17.4421 8.98565 17.3333 9.29688 17.3333H10.6667M21.3333 10.6666V15.9999C21.3333 16.7363 20.7364 17.3333 20 17.3333H10.6667" stroke="#0D2060" stroke-width="2" stroke-linecap="round" stroke-linejoin="round"/>
</svg>
