<svg width="32" height="32" viewBox="0 0 32 32" fill="none" xmlns="http://www.w3.org/2000/svg">
<rect width="32" height="32" rx="16" fill="#FFC8DD"/>
<path d="M7.19598 8.11845C7.0143 7.53148 6.92346 7.23799 7.08072 7.08072C7.23799 6.92346 7.53148 7.0143 8.11844 7.19598L12.707 8.61625C13.4044 8.83209 13.9503 9.37807 14.1662 10.0754L16 16L10.0754 14.1662C9.37807 13.9503 8.83209 13.4044 8.61625 12.707L7.19598 8.11845Z" fill="#0D2060"/>
<path d="M16.0002 16L21.9246 17.8337C22.6219 18.0496 23.1679 18.5956 23.3837 19.2929L24.804 23.8815C24.9857 24.4684 25.0765 24.7619 24.9193 24.9192C24.762 25.0765 24.4685 24.9856 23.8815 24.8039L19.293 23.3837C18.5956 23.1678 18.0496 22.6218 17.8338 21.9245L16.0001 16.0001L14.1663 21.9246C13.9505 22.6219 13.4045 23.1679 12.7071 23.3838L8.11858 24.804C7.53161 24.9857 7.23813 25.0765 7.08086 24.9193C6.9236 24.762 7.01444 24.4685 7.19612 23.8816L8.61639 19.293C8.83223 18.5956 9.37821 18.0497 10.0756 17.8338L16 16L17.8338 10.0755C18.0497 9.37815 18.5956 8.83218 19.293 8.61633L23.8816 7.19607C24.4685 7.01439 24.762 6.92354 24.9193 7.08081C25.0765 7.23808 24.9857 7.53156 24.804 8.11853L23.3838 12.7071C23.1679 13.4044 22.6219 13.9504 21.9246 14.1663L16.0002 16Z" fill="#0D2060"/>
</svg>
