<svg width="256" height="256" viewBox="0 0 256 256" fill="none" xmlns="http://www.w3.org/2000/svg">
<g clip-path="url(#clip0_660_376)">
<rect width="153" height="146" transform="translate(56 54)" fill="#FDFAFE"/>
<path d="M0 128V256H128H256V128V-4.19617e-05H128H0V128ZM64.48 56.8C68.544 57.952 76.896 60.416 83.04 62.24C89.216 64.064 97.76 66.592 102.08 67.84C106.4 69.12 114.016 71.328 119.04 72.8C124.064 74.272 129.056 75.712 130.144 76L132.128 76.544L136.544 81.856C138.976 84.8 142.336 88.864 144 90.912C145.664 92.96 148.192 96.032 149.568 97.728C150.944 99.424 152 100.896 151.904 100.992C151.712 101.216 146.912 99.808 123.488 92.608C114.048 89.728 106.208 87.36 106.048 87.36C105.888 87.392 106.112 87.68 106.56 88.032C107.008 88.416 108.768 90.016 110.528 91.648C112.256 93.248 115.2 95.616 117.088 96.896C119.872 98.816 129.28 104.384 132.896 106.208C133.76 106.656 134.144 107.328 133.376 107.04C132.768 106.816 90.688 100.832 71.52 98.24C67.488 97.696 63.872 97.184 63.52 97.088C63.168 96.992 61.792 95.712 60.48 94.208C59.168 92.704 57.76 91.136 57.344 90.688C55.52 88.64 55.616 89.824 55.872 71.36C56.064 56.032 56.16 54.4 56.608 54.528C56.896 54.624 60.448 55.616 64.48 56.8ZM181.12 57.728C184.128 58.528 187.52 60.256 189.44 61.984C190.976 63.36 194.4 67.104 201.408 75.008C202.976 76.8 205.184 79.296 206.368 80.576C207.52 81.888 208.512 83.072 208.576 83.232C208.64 83.392 205.024 83.552 200.256 83.584L191.84 83.68V110.624C191.84 125.44 191.744 137.632 191.648 137.728C191.552 137.856 190.336 136.736 188.96 135.296C187.584 133.824 183.2 129.248 179.232 125.12C166.624 112.032 164.064 109.344 161.376 106.304L158.72 103.36V86.24V69.12L153.888 63.52C151.232 60.448 148.928 57.856 148.768 57.76C147.584 57.024 149.408 56.928 163.776 57.056C176.928 57.152 179.328 57.248 181.12 57.728ZM77.92 108.8C82.496 109.44 103.264 112.288 108 112.96C129.632 116 135.872 116.896 136 117.024C136.096 117.088 135.36 117.92 134.4 118.816C133.44 119.712 129.568 123.424 125.824 127.04C119.328 133.248 118.912 133.6 117.504 133.824C116.672 133.92 111.584 134.048 106.208 134.048L96.416 134.08L93.44 130.784C91.808 128.992 87.04 123.904 82.88 119.52C75.648 111.904 72.64 108.608 72.64 108.288C72.64 108.096 72.64 108.096 77.92 108.8ZM152.64 156.64V200H139.52H126.4L126.56 199.264C126.656 198.88 127.104 196.832 127.552 194.72C128.864 188.48 130.112 182.656 131.68 175.52C133.312 168.096 134.08 164.448 139.008 140.8C140.864 131.936 142.4 124.416 142.4 124.096C142.4 123.616 152.096 113.28 152.512 113.28C152.576 113.28 152.64 132.8 152.64 156.64ZM166.112 124.32C167.936 126.24 173.312 131.872 178.08 136.8C189.216 148.384 191.36 150.656 191.36 150.976C191.36 151.424 162.304 180.16 161.888 180.16C161.6 180.16 161.536 176.864 161.696 166.176C161.824 158.496 161.92 144.928 161.92 136.032C161.92 122.432 161.984 119.936 162.336 120.32C162.592 120.576 164.288 122.368 166.112 124.32ZM129.44 142.432C128.448 146.72 127.008 153.184 126.24 156.8C125.472 160.416 124.096 166.528 123.2 170.4C122.304 174.272 121.44 178.08 121.28 178.88C121.12 179.68 120.256 183.648 119.328 187.68C118.432 191.744 117.44 196.128 117.152 197.44L116.64 199.84L89.824 199.936C75.072 199.968 63.04 199.872 63.104 199.744C63.2 199.52 72.864 190.112 84.96 178.56C97.984 166.112 103.232 161.088 106.08 158.4C107.84 156.768 111.808 152.928 114.88 149.952C125.6 139.488 130.944 134.368 131.072 134.496C131.136 134.56 130.4 138.144 129.44 142.432Z" fill="#0A0B0F"/>
<path d="M176.158 67.9362C174.366 68.9602 173.438 70.4642 173.438 72.3842C173.438 74.2082 173.982 75.4562 175.358 76.6082C177.598 78.4642 180.67 78.3362 182.622 76.2882C186.814 71.8082 181.502 64.9282 176.158 67.9362Z" fill="#0A0B0F"/>
</g>
<defs>
<clipPath id="clip0_660_376">
<rect width="256" height="256" rx="53.3333" fill="white"/>
</clipPath>
</defs>
</svg>
