<svg width="16" height="16" viewBox="0 0 16 16" fill="none" xmlns="http://www.w3.org/2000/svg">
<g clip-path="url(#clip0_88_603)">
<path d="M11.7065 14.0005C11.5999 14.0009 11.4947 13.9757 11.3998 13.9271L7.99984 12.1471L4.59984 13.9271C4.48944 13.9852 4.36496 14.0111 4.24056 14.0019C4.11616 13.9928 3.99683 13.9489 3.89613 13.8753C3.79543 13.8016 3.7174 13.7013 3.67092 13.5855C3.62443 13.4697 3.61136 13.3433 3.63318 13.2205L4.29984 9.46713L1.55318 6.80046C1.46748 6.71494 1.40669 6.60771 1.37733 6.49026C1.34796 6.37281 1.35114 6.24958 1.38651 6.13379C1.42515 6.01531 1.49623 5.91003 1.59168 5.8299C1.68712 5.74977 1.80312 5.698 1.92651 5.68046L5.72651 5.12713L7.39984 1.70713C7.45443 1.59441 7.53967 1.49936 7.64578 1.43284C7.7519 1.36633 7.8746 1.33105 7.99984 1.33105C8.12508 1.33105 8.24779 1.36633 8.3539 1.43284C8.46002 1.49936 8.54525 1.59441 8.59984 1.70713L10.2932 5.12046L14.0932 5.6738C14.2166 5.69133 14.3326 5.7431 14.428 5.82323C14.5235 5.90336 14.5945 6.00864 14.6332 6.12713C14.6685 6.24291 14.6717 6.36614 14.6424 6.48359C14.613 6.60104 14.5522 6.70828 14.4665 6.79379L11.7198 9.46046L12.3865 13.2138C12.4103 13.3388 12.3978 13.468 12.3506 13.5861C12.3033 13.7042 12.2233 13.8064 12.1198 13.8805C11.9991 13.9651 11.8538 14.0073 11.7065 14.0005Z" fill="#0D2060"/>
</g>
<defs>
<clipPath id="clip0_88_603">
<rect width="16" height="16" fill="white"/>
</clipPath>
</defs>
</svg>
